ffmpeg started on 2016-12-06 at 18:44:25
Report written to "Output/x264/results/ffmpeg/sintelmedium4000k.log"
Command line:
Tools/ffmpeg/ffmpeg -benchmark -y -i Input/y4m/sintel.y4m -c:v libx264 -preset medium -b:v 4000k -an Output/x264/encoded/sintelmedium4000k.mkv
ffmpeg version N-82227-gdb23fde Copyright (c) 2000-2016 the FFmpeg developers
  built with gcc 5.4.0 (Ubuntu 5.4.0-6ubuntu1~16.04.2) 20160609
  configuration: --prefix=/home/jaroslav/ffmpeg_build --pkg-config-flags=--static --extra-cflags=-I/home/jaroslav/ffmpeg_build/include --extra-ldflags=-L/home/jaroslav/ffmpeg_build/lib --bindir=/home/jaroslav/bin --enable-gpl --enable-libass --enable-libfdk-aac --enable-libfreetype --enable-libmp3lame --enable-libopus --enable-libtheora --enable-libvorbis --enable-libvpx --enable-libx264 --enable-libx265 --enable-nvenc --enable-libmfx --enable-libxvid --enable-libgsm --enable-libopencore-amrnb --enable-version3 --enable-nonfree
  libavutil      55. 35.100 / 55. 35.100
  libavcodec     57. 66.101 / 57. 66.101
  libavformat    57. 57.100 / 57. 57.100
  libavdevice    57.  2.100 / 57.  2.100
  libavfilter     6. 66.100 /  6. 66.100
  libswscale      4.  3.100 /  4.  3.100
  libswresample   2.  4.100 /  2.  4.100
  libpostproc    54.  2.100 / 54.  2.100
Input #0, yuv4mpegpipe, from 'Input/y4m/sintel.y4m':
  Duration: 00:00:20.83, start: 0.000000, bitrate: 2057307 kb/s
    Stream #0:0: Video: rawvideo (I420 / 0x30323449), yuv420p(progressive), 4096x1744, SAR 1:1 DAR 256:109, 24 fps, 24 tbr, 24 tbn, 24 tbc
[libx264 @ 0x33ab1c0] using SAR=1/1
[libx264 @ 0x33ab1c0] using cpu capabilities: MMX2 SSE2Fast SSSE3 SSE4.2 AVX FMA3 AVX2 LZCNT BMI2
[libx264 @ 0x33ab1c0] profile High, level 5.1
[libx264 @ 0x33ab1c0] 264 - core 148 - H.264/MPEG-4 AVC codec - Copyleft 2003-2016 - http://www.videolan.org/x264.html - options: cabac=1 ref=3 deblock=1:0:0 analyse=0x3:0x113 me=hex subme=7 psy=1 psy_rd=1.00:0.00 mixed_ref=1 me_range=16 chroma_me=1 trellis=1 8x8dct=1 cqm=0 deadzone=21,11 fast_pskip=1 chroma_qp_offset=-2 threads=6 lookahead_threads=1 sliced_threads=0 nr=0 decimate=1 interlaced=0 bluray_compat=0 constrained_intra=0 bframes=3 b_pyramid=2 b_adapt=1 b_bias=0 direct=1 weightb=1 open_gop=0 weightp=2 keyint=250 keyint_min=24 scenecut=40 intra_refresh=0 rc_lookahead=40 rc=abr mbtree=1 bitrate=4000 ratetol=1.0 qcomp=0.60 qpmin=0 qpmax=69 qpstep=4 ip_ratio=1.40 aq=1:1.00
Output #0, matroska, to 'Output/x264/encoded/sintelmedium4000k.mkv':
  Metadata:
    encoder         : Lavf57.57.100
    Stream #0:0: Video: h264 (libx264) (H264 / 0x34363248), yuv420p, 4096x1744 [SAR 1:1 DAR 256:109], q=-1--1, 4000 kb/s, 24 fps, 1k tbn, 24 tbc
    Metadata:
      encoder         : Lavc57.66.101 libx264
    Side data:
      cpb: bitrate max/min/avg: 0/0/4000000 buffer size: 0 vbv_delay: -1
Stream mapping:
  Stream #0:0 -> #0:0 (rawvideo (native) -> h264 (libx264))
Press [q] to stop, [?] for help
frame=   10 fps=0.0 q=0.0 size=       0kB time=00:00:00.00 bitrate=N/A speed=   0x    frame=   19 fps= 18 q=0.0 size=       0kB time=00:00:00.00 bitrate=N/A speed=   0x    frame=   28 fps= 18 q=0.0 size=       0kB time=00:00:00.00 bitrate=N/A speed=   0x    frame=   37 fps= 17 q=0.0 size=       0kB time=00:00:00.00 bitrate=N/A speed=   0x    frame=   43 fps= 16 q=0.0 size=       0kB time=00:00:00.00 bitrate=N/A speed=   0x    frame=   47 fps=9.3 q=0.0 size=       0kB time=00:00:00.00 bitrate=N/A speed=   0x    frame=   48 fps=5.6 q=0.0 size=       0kB time=00:00:00.00 bitrate=N/A speed=   0x    frame=   49 fps=5.0 q=0.0 size=       0kB time=00:00:00.00 bitrate=N/A speed=   0x    frame=   54 fps=5.1 q=42.0 size=       1kB time=00:00:00.04 bitrate= 136.6kbits/s speed=0.00407x    frame=   56 fps=5.0 q=39.0 size=       1kB time=00:00:00.12 bitrate=  46.6kbits/s speed=0.0113x    frame=   61 fps=5.1 q=50.0 size=       1kB time=00:00:00.33 bitrate=  17.6kbits/s speed=0.0282x    frame=   68 fps=5.4 q=50.0 size=       1kB time=00:00:00.62 bitrate=   9.4kbits/s speed=0.0496x    frame=   75 fps=5.6 q=50.0 size=       1kB time=00:00:00.91 bitrate=   6.4kbits/s speed=0.0691x    frame=   81 fps=5.9 q=50.0 size=       1kB time=00:00:01.16 bitrate=   5.0kbits/s speed=0.0847x    frame=   85 fps=5.9 q=49.0 size=       1kB time=00:00:01.33 bitrate=   4.4kbits/s speed=0.0929x    frame=   90 fps=6.1 q=49.0 size=       1kB time=00:00:01.54 bitrate=   3.8kbits/s speed=0.104x    frame=   97 fps=6.3 q=48.0 size=       1kB time=00:00:01.83 bitrate=   3.2kbits/s speed=0.119x    frame=  103 fps=6.4 q=48.0 size=       1kB time=00:00:02.08 bitrate=   2.8kbits/s speed=0.13x    frame=  108 fps=6.5 q=48.0 size=       1kB time=00:00:02.29 bitrate=   2.6kbits/s speed=0.139x    frame=  112 fps=6.6 q=48.0 size=       1kB time=00:00:02.45 bitrate=   2.4kbits/s speed=0.144x    frame=  117 fps=6.6 q=48.0 size=       1kB time=00:00:02.66 bitrate=   2.2kbits/s speed=0.15x    frame=  123 fps=6.7 q=48.0 size=       1kB time=00:00:02.91 bitrate=   2.0kbits/s speed=0.159x    frame=  129 fps=6.7 q=48.0 size=       1kB time=00:00:03.16 bitrate=   1.9kbits/s speed=0.166x    frame=  132 fps=6.7 q=48.0 size=       1kB time=00:00:03.29 bitrate=   1.8kbits/s speed=0.167x    frame=  138 fps=6.8 q=48.0 size=       1kB time=00:00:03.54 bitrate=   1.7kbits/s speed=0.174x    frame=  142 fps=6.8 q=45.0 size=       1kB time=00:00:03.70 bitrate=   1.6kbits/s speed=0.178x    frame=  149 fps=7.0 q=47.0 size=    2281kB time=00:00:04.00 bitrate=4669.9kbits/s speed=0.187x    frame=  154 fps=7.0 q=47.0 size=    2281kB time=00:00:04.20 bitrate=4439.2kbits/s speed=0.192x    frame=  159 fps=7.1 q=47.0 size=    2281kB time=00:00:04.41 bitrate=4229.2kbits/s speed=0.197x    frame=  167 fps=7.3 q=47.0 size=    2281kB time=00:00:04.75 bitrate=3932.7kbits/s speed=0.207x    frame=  171 fps=7.3 q=47.0 size=    2281kB time=00:00:04.91 bitrate=3799.2kbits/s speed=0.209x    frame=  178 fps=7.3 q=47.0 size=    2281kB time=00:00:05.20 bitrate=3586.9kbits/s speed=0.215x    frame=  184 fps=7.4 q=47.0 size=    2281kB time=00:00:05.45 bitrate=3422.7kbits/s speed=0.22x    frame=  191 fps=7.5 q=47.0 size=    2281kB time=00:00:05.75 bitrate=3248.9kbits/s speed=0.226x    frame=  197 fps=7.6 q=47.0 size=    2281kB time=00:00:06.00 bitrate=3113.5kbits/s speed=0.232x    frame=  202 fps=7.6 q=44.0 size=    2281kB time=00:00:06.20 bitrate=3009.2kbits/s speed=0.235x    frame=  211 fps=7.8 q=47.0 size=    3385kB time=00:00:06.58 bitrate=4211.2kbits/s speed=0.244x    frame=  217 fps=7.8 q=46.0 size=    3385kB time=00:00:06.83 bitrate=4057.2kbits/s speed=0.247x    frame=  223 fps=7.9 q=46.0 size=    3385kB time=00:00:07.08 bitrate=3914.0kbits/s speed=0.25x    frame=  230 fps=8.0 q=46.0 size=    3385kB time=00:00:07.37 bitrate=3759.0kbits/s speed=0.255x    frame=  237 fps=8.0 q=46.0 size=    3832kB time=00:00:07.66 bitrate=4093.9kbits/s speed=0.258x    frame=  243 fps=8.0 q=46.0 size=    3832kB time=00:00:07.91 bitrate=3964.6kbits/s speed=0.262x    frame=  250 fps=8.1 q=46.0 size=    3832kB time=00:00:08.20 bitrate=3824.1kbits/s speed=0.266x    frame=  256 fps=8.2 q=46.0 size=    3832kB time=00:00:08.45 bitrate=3711.0kbits/s speed=0.269x    frame=  262 fps=8.2 q=45.0 size=    3832kB time=00:00:08.70 bitrate=3604.5kbits/s speed=0.273x    frame=  269 fps=8.3 q=45.0 size=    3832kB time=00:00:09.00 bitrate=3487.6kbits/s speed=0.277x    frame=  276 fps=8.4 q=45.0 size=    3832kB time=00:00:09.29 bitrate=3378.0kbits/s speed=0.281x    frame=  284 fps=8.4 q=45.0 size=    3832kB time=00:00:09.62 bitrate=3261.1kbits/s speed=0.285x    frame=  291 fps=8.5 q=45.0 size=    3832kB time=00:00:09.91 bitrate=3165.1kbits/s speed=0.289x    frame=  300 fps=8.6 q=44.0 size=    3832kB time=00:00:10.29 bitrate=3049.8kbits/s speed=0.296x    frame=  306 fps=8.7 q=44.0 size=    3832kB time=00:00:10.54 bitrate=2977.5kbits/s speed=0.299x    frame=  312 fps=8.6 q=44.0 size=    3832kB time=00:00:10.79 bitrate=2908.5kbits/s speed=0.297x    frame=  322 fps=8.7 q=44.0 size=    5005kB time=00:00:11.20 bitrate=3657.8kbits/s speed=0.304x    frame=  331 fps=8.8 q=43.0 size=    5005kB time=00:00:11.58 bitrate=3539.4kbits/s speed=0.308x    frame=  338 fps=8.9 q=43.0 size=    5005kB time=00:00:11.87 bitrate=3452.4kbits/s speed=0.312x    frame=  347 fps=9.0 q=43.0 size=    5005kB time=00:00:12.25 bitrate=3346.7kbits/s speed=0.317x    frame=  357 fps=9.1 q=42.0 size=    5005kB time=00:00:12.66 bitrate=3236.5kbits/s speed=0.324x    frame=  366 fps=9.2 q=42.0 size=    5005kB time=00:00:13.04 bitrate=3143.5kbits/s speed=0.329x    frame=  375 fps=9.3 q=42.0 size=    5005kB time=00:00:13.41 bitrate=3055.6kbits/s speed=0.334x    frame=  384 fps=9.4 q=41.0 size=    5005kB time=00:00:13.79 bitrate=2972.5kbits/s speed=0.339x    frame=  389 fps=9.4 q=41.0 size=    5005kB time=00:00:14.00 bitrate=2928.4kbits/s speed=0.338x    frame=  398 fps=9.5 q=41.0 size=    5005kB time=00:00:14.37 bitrate=2852.0kbits/s speed=0.343x    frame=  402 fps=9.4 q=40.0 size=    5005kB time=00:00:14.54 bitrate=2819.2kbits/s speed=0.341x    frame=  412 fps=9.5 q=40.0 size=    5005kB time=00:00:14.95 bitrate=2740.8kbits/s speed=0.346x    frame=  418 fps=9.6 q=40.0 size=    6096kB time=00:00:15.20 bitrate=3283.6kbits/s speed=0.348x    frame=  426 fps=9.6 q=40.0 size=    6096kB time=00:00:15.54 bitrate=3213.1kbits/s speed=0.35x    frame=  434 fps=9.6 q=40.0 size=    6096kB time=00:00:15.87 bitrate=3145.7kbits/s speed=0.352x    frame=  439 fps=9.6 q=39.0 size=    6096kB time=00:00:16.08 bitrate=3105.0kbits/s speed=0.353x    frame=  445 fps=9.6 q=39.0 size=    6096kB time=00:00:16.33 bitrate=3057.5kbits/s speed=0.354x    frame=  449 fps=9.6 q=39.0 size=    6096kB time=00:00:16.50 bitrate=3026.5kbits/s speed=0.354x    frame=  457 fps=9.7 q=40.0 size=    6096kB time=00:00:16.83 bitrate=2966.7kbits/s speed=0.356x    frame=  465 fps=9.7 q=39.0 size=    6096kB time=00:00:17.16 bitrate=2908.9kbits/s speed=0.358x    frame=  472 fps=9.7 q=39.0 size=    7093kB time=00:00:17.45 bitrate=3327.9kbits/s speed=0.36x    frame=  478 fps=9.7 q=39.0 size=    7093kB time=00:00:17.70 bitrate=3280.9kbits/s speed=0.361x    frame=  486 fps=9.8 q=39.0 size=    7093kB time=00:00:18.04 bitrate=3220.2kbits/s speed=0.364x    frame=  491 fps=9.8 q=39.0 size=    7093kB time=00:00:18.25 bitrate=3183.5kbits/s speed=0.363x    frame=  499 fps=9.8 q=39.0 size=    7093kB time=00:00:18.58 bitrate=3126.5kbits/s speed=0.366x    frame=  500 fps=9.3 q=-1.0 Lsize=    8440kB time=00:00:20.70 bitrate=3338.8kbits/s speed=0.386x    
video:8436kB audio:0kB subtitle:0kB other streams:0kB global headers:0kB muxing overhead: 0.054837%
bench: utime=161.204s
bench: maxrss=1569432kB
[libx264 @ 0x33ab1c0] frame I:8     Avg QP:34.94  size: 60193
[libx264 @ 0x33ab1c0] frame P:269   Avg QP:40.30  size: 21051
[libx264 @ 0x33ab1c0] frame B:223   Avg QP:38.80  size: 11181
[libx264 @ 0x33ab1c0] consecutive B-frames: 37.0%  8.4%  6.6% 48.0%
[libx264 @ 0x33ab1c0] mb I  I16..4: 25.4% 73.2%  1.4%
[libx264 @ 0x33ab1c0] mb P  I16..4: 12.8% 27.1%  0.1%  P16..4: 11.2%  0.6%  0.2%  0.0%  0.0%    skip:47.9%
[libx264 @ 0x33ab1c0] mb B  I16..4:  1.0%  1.4%  0.0%  B16..8: 21.3%  0.7%  0.0%  direct: 0.2%  skip:75.4%  L0:40.5% L1:58.8% BI: 0.7%
[libx264 @ 0x33ab1c0] final ratefactor: 36.83
[libx264 @ 0x33ab1c0] 8x8 transform intra:67.8% inter:95.5%
[libx264 @ 0x33ab1c0] coded y,uvDC,uvAC intra: 6.8% 16.4% 0.3% inter: 1.6% 1.4% 0.0%
[libx264 @ 0x33ab1c0] i16 v,h,dc,p: 34% 37%  6% 23%
[libx264 @ 0x33ab1c0] i8 v,h,dc,ddl,ddr,vr,hd,vl,hu: 22%  9% 64%  1%  1%  1%  1%  1%  1%
[libx264 @ 0x33ab1c0] i4 v,h,dc,ddl,ddr,vr,hd,vl,hu: 21% 27% 12%  6%  9%  7%  9%  4%  5%
[libx264 @ 0x33ab1c0] i8c dc,h,v,p: 92%  4%  4%  0%
[libx264 @ 0x33ab1c0] Weighted P-Frames: Y:1.1% UV:0.7%
[libx264 @ 0x33ab1c0] ref P L0: 68.4%  9.6% 16.1%  5.8%  0.0%
[libx264 @ 0x33ab1c0] ref B L0: 89.7%  8.5%  1.8%
[libx264 @ 0x33ab1c0] ref B L1: 97.7%  2.3%
[libx264 @ 0x33ab1c0] kb/s:3316.83
